<?xml version="1.0" standalone="no"?>
<!DOCTYPE svg PUBLIC "-//W3C//DTD SVG 20010904//EN"
 "http://www.w3.org/TR/2001/REC-SVG-20010904/DTD/svg10.dtd">
<svg version="1.0" xmlns="http://www.w3.org/2000/svg"
 width="300.000000pt" height="300.000000pt" viewBox="0 0 300.000000 300.000000"
 preserveAspectRatio="xMidYMid meet">
<metadata>
Created by potrace 1.11, written by Peter Selinger 2001-2013
</metadata>
<g transform="translate(0.000000,300.000000) scale(0.100000,-0.100000)"
fill="#000000" stroke="none">
<path d="M0 1500 l0 -1500 1500 0 1500 0 0 1500 0 1500 -1500 0 -1500 0 0
-1500z m1413 1216 c250 -75 438 -234 541 -458 59 -127 70 -184 71 -363 0 -181
-16 -259 -81 -390 -99 -202 -298 -369 -512 -431 l-56 -17 52 -48 c129 -118
294 -146 437 -74 28 15 89 60 136 102 101 92 192 138 302 155 131 20 285 -16
370 -88 32 -27 87 -92 87 -103 0 -6 -116 -81 -125 -81 -3 0 -19 16 -36 35 -47
53 -128 88 -208 89 -133 2 -231 -53 -285 -159 -29 -55 -31 -68 -31 -161 0 -92
3 -105 30 -159 54 -106 153 -161 286 -159 80 1 161 36 208 89 17 19 34 35 37
35 13 0 124 -75 124 -83 0 -5 -25 -35 -55 -67 -189 -197 -560 -162 -727 70
-39 55 -71 145 -83 233 -3 26 -9 47 -13 47 -4 -1 -34 -7 -67 -15 -119 -29
-264 -13 -386 43 -75 34 -179 111 -278 204 l-70 67 -99 15 c-356 54 -622 288
-715 631 -30 112 -29 325 2 439 86 320 335 551 671 622 44 9 116 12 225 10
138 -3 172 -7 248 -30z"/>
<path d="M1050 2530 c-255 -33 -458 -198 -533 -435 -18 -59 -22 -93 -22 -210
0 -126 3 -147 26 -212 100 -273 357 -437 660 -420 304 16 542 224 595 519 63
348 -155 682 -486 746 -86 17 -169 21 -240 12z"/>
</g>
</svg>
