<?xml version="1.0" standalone="no"?>
<!DOCTYPE svg PUBLIC "-//W3C//DTD SVG 20010904//EN"
 "http://www.w3.org/TR/2001/REC-SVG-20010904/DTD/svg10.dtd">
<svg version="1.0" xmlns="http://www.w3.org/2000/svg"
 width="300.000000pt" height="300.000000pt" viewBox="0 0 300.000000 300.000000"
 preserveAspectRatio="xMidYMid meet">
<metadata>
Created by potrace 1.14, written by Peter Selinger 2001-2017
</metadata>
<g transform="translate(0.000000,300.000000) scale(0.100000,-0.100000)"
fill="#000000" stroke="none">
<path d="M0 1500 l0 -1500 1500 0 1500 0 0 1500 0 1500 -1500 0 -1500 0 0
-1500z m1413 1216 c250 -75 438 -234 541 -458 59 -127 70 -184 71 -363 0 -138
-3 -171 -23 -239 -80 -277 -276 -482 -547 -572 l-79 -27 52 -48 c129 -119 294
-146 439 -73 29 15 90 61 135 102 100 91 190 137 301 154 143 22 304 -22 390
-106 39 -39 73 -84 66 -90 -11 -9 -120 -76 -124 -76 -3 0 -21 17 -40 39 -48
53 -123 84 -205 85 -131 2 -231 -54 -285 -159 -28 -54 -30 -67 -30 -160 0 -93
2 -106 30 -160 54 -106 153 -161 286 -159 80 1 161 36 208 89 17 19 34 35 37
35 13 0 124 -75 124 -83 0 -5 -23 -33 -52 -63 -132 -140 -363 -173 -555 -79
-149 73 -237 202 -258 377 l-6 57 -42 -16 c-23 -8 -80 -17 -127 -20 -199 -12
-362 63 -569 260 -69 65 -73 67 -141 77 -154 22 -256 57 -367 126 -173 108
-290 254 -352 441 -171 510 121 1017 649 1129 44 9 116 12 225 10 138 -3 172
-7 248 -30z"/>
<path d="M1044 2529 c-239 -28 -433 -183 -522 -417 -24 -61 -26 -81 -26 -217
-1 -138 1 -156 25 -222 100 -273 357 -437 660 -420 412 22 684 395 587 807
-17 74 -85 203 -138 263 -52 58 -156 133 -224 161 -102 42 -241 60 -362 45z"/>
</g>
</svg>
